<mxfile host="app.diagrams.net" modified="2022-01-10T02:43:45.846Z" agent="5.0 (Windows NT 10.0; Win64; x64) AppleWebKit/537.36 (KHTML, like Gecko) Chrome/97.0.4692.71 Safari/537.36 Edg/97.0.1072.55" etag="TUMpOHslYXgT_LKg09FQ" version="16.0.0" type="github">
  <diagram id="irMcVFUV-yW5XqjfqHID" name="Page-1">
    <mxGraphModel dx="327" dy="210" grid="1" gridSize="10" guides="1" tooltips="1" connect="1" arrows="1" fold="1" page="1" pageScale="1" pageWidth="827" pageHeight="1169" math="0" shadow="0">
      <root>
        <mxCell id="0" />
        <mxCell id="1" parent="0" />
        <mxCell id="i2SO23TmeKBEp0NZ_OEs-1" value="" style="shape=trapezoid;perimeter=trapezoidPerimeter;whiteSpace=wrap;html=1;fixedSize=1;rotation=90;" vertex="1" parent="1">
          <mxGeometry x="120" y="412.5" width="105" height="30" as="geometry" />
        </mxCell>
        <mxCell id="i2SO23TmeKBEp0NZ_OEs-2" value="1" style="text;html=1;strokeColor=none;fillColor=none;align=center;verticalAlign=middle;whiteSpace=wrap;rounded=0;" vertex="1" parent="1">
          <mxGeometry x="140" y="400" width="60" height="30" as="geometry" />
        </mxCell>
        <mxCell id="i2SO23TmeKBEp0NZ_OEs-3" value="0" style="text;html=1;strokeColor=none;fillColor=none;align=center;verticalAlign=middle;whiteSpace=wrap;rounded=0;" vertex="1" parent="1">
          <mxGeometry x="140" y="440" width="60" height="30" as="geometry" />
        </mxCell>
        <mxCell id="i2SO23TmeKBEp0NZ_OEs-9" value="&lt;div style=&quot;direction: ltr&quot;&gt;PC&lt;/div&gt;" style="rounded=0;whiteSpace=wrap;html=1;rotation=0;fillColor=none;" vertex="1" parent="1">
          <mxGeometry x="210" y="370" width="40" height="120" as="geometry" />
        </mxCell>
        <mxCell id="i2SO23TmeKBEp0NZ_OEs-14" value="" style="verticalLabelPosition=bottom;verticalAlign=top;html=1;shape=mxgraph.basic.acute_triangle;dx=0.5;fillColor=none;" vertex="1" parent="1">
          <mxGeometry x="220" y="470" width="20" height="20" as="geometry" />
        </mxCell>
      </root>
    </mxGraphModel>
  </diagram>
</mxfile>
